<?xml version="1.0" encoding="UTF-8" standalone="no"?>
<!-- Generator: Adobe Illustrator 22.0.1, SVG Export Plug-In . SVG Version: 6.00 Build 0)  -->

<svg
   xmlns:dc="http://purl.org/dc/elements/1.1/"
   xmlns:cc="http://creativecommons.org/ns#"
   xmlns:rdf="http://www.w3.org/1999/02/22-rdf-syntax-ns#"
   xmlns:svg="http://www.w3.org/2000/svg"
   xmlns="http://www.w3.org/2000/svg"
   xmlns:sodipodi="http://sodipodi.sourceforge.net/DTD/sodipodi-0.dtd"
   xmlns:inkscape="http://www.inkscape.org/namespaces/inkscape"
   version="1.1"
   id="Capa_1"
   x="0px"
   y="0px"
   viewBox="0 0 419.89998 82.400003"
   xml:space="preserve"
   sodipodi:docname="logo_bg_colour.svg"
   width="419.89999"
   height="82.400002"
   inkscape:version="0.92.2 (5c3e80d, 2017-08-06)"><metadata
     id="metadata43"><rdf:RDF><cc:Work
         rdf:about=""><dc:format>image/svg+xml</dc:format><dc:type
           rdf:resource="http://purl.org/dc/dcmitype/StillImage" /><dc:title></dc:title></cc:Work></rdf:RDF></metadata><defs
     id="defs41" /><sodipodi:namedview
     pagecolor="#ffffff"
     bordercolor="#666666"
     borderopacity="1"
     objecttolerance="10"
     gridtolerance="10"
     guidetolerance="10"
     inkscape:pageopacity="0"
     inkscape:pageshadow="2"
     inkscape:window-width="1920"
     inkscape:window-height="1017"
     id="namedview39"
     showgrid="false"
     fit-margin-top="0"
     fit-margin-left="0"
     fit-margin-right="0"
     fit-margin-bottom="0"
     inkscape:zoom="1.0213111"
     inkscape:cx="191.3253"
     inkscape:cy="29.795343"
     inkscape:window-x="-8"
     inkscape:window-y="-8"
     inkscape:window-maximized="1"
     inkscape:current-layer="Capa_1" /><style
     type="text/css"
     id="style2">
	.st0{fill:#FB0E3B;}
	.st1{fill:#33CCCC;}
	.st2{fill:none;stroke:#F29100;stroke-width:18;stroke-miterlimit:10;}
	.st3{fill:#660099;}
	.st4{fill:#FFFFFF;}
	.st5{fill:#FF9900;}
	.st6{fill:#7C84FF;}
	.st7{fill:#FFD3D2;}
	.st8{fill:#5555F3;}
	.st9{fill:#2CC1C7;}
	.st10{fill:#FF4F4F;}
	.st11{clip-path:url(#SVGID_2_);}
	.st12{fill:#5756F2;}
	.st13{fill:#6855EF;}
	.st14{clip-path:url(#SVGID_4_);}
	.st15{clip-path:url(#SVGID_6_);}
	.st16{fill:#FE924A;}
	.st17{clip-path:url(#SVGID_8_);}
	.st18{fill:#4035D8;}
	.st19{fill:#7B83FF;}
	.st20{fill:#2CBFC6;}
	.st21{fill:#189D9A;}
	.st22{fill:#4396CA;}
	.st23{clip-path:url(#SVGID_10_);}
	.st24{clip-path:url(#SVGID_12_);}
	.st25{clip-path:url(#SVGID_14_);}
	.st26{clip-path:url(#SVGID_16_);}
	.st27{clip-path:url(#SVGID_18_);}
	.st28{fill:#3287B2;}
	.st29{clip-path:url(#SVGID_20_);}
	.st30{clip-path:url(#SVGID_22_);}
	.st31{fill:#6D54ED;}
	.st32{clip-path:url(#SVGID_24_);}
	.st33{opacity:0.19;}
	.st34{fill:#FE9249;}
	.st35{fill:#5F56F1;}
	.st36{fill:#FC6262;}
	.st37{fill:#189F9B;}
	.st38{fill:#FF6E6E;}
	.st39{clip-path:url(#SVGID_26_);}
	.st40{clip-path:url(#SVGID_28_);}
	.st41{fill:#1A9F9C;}
	.st42{fill:#7676FF;}
	.st43{fill:#5958F2;}
	.st44{clip-path:url(#SVGID_30_);}
	.st45{clip-path:url(#SVGID_32_);}
	.st46{fill:#7D85FF;}
	.st47{fill:#F27936;}
	.st48{fill:#5C55F1;}
	.st49{fill:#7E84FC;}
	.st50{clip-path:url(#SVGID_34_);}
	.st51{fill:#6E54ED;}
	.st52{fill:#776DF2;}
	.st53{fill:#F7682F;}
	.st54{fill:#F4EFE9;}
	.st55{clip-path:url(#SVGID_36_);}
	.st56{fill:#5757F3;}
	.st57{clip-path:url(#SVGID_38_);}
	.st58{fill:#FFBDBD;}
	.st59{clip-path:url(#SVGID_40_);}
	.st60{fill:#5C55F0;}
	.st61{fill:#FFB6B6;}
	.st62{fill:#FF9149;}
	.st63{fill:#FFC5C5;}
	.st64{fill:#5A56F1;}
	.st65{clip-path:url(#SVGID_42_);}
	.st66{clip-path:url(#SVGID_44_);}
	.st67{clip-path:url(#SVGID_46_);}
	.st68{fill:#54C3DD;}
	.st69{clip-path:url(#SVGID_48_);}
	.st70{fill:#1C9E9C;}
	.st71{fill:#FFD2D2;}
	.st72{fill:#7C85FE;}
	.st73{clip-path:url(#SVGID_50_);}
	.st74{fill:#FE854E;}
	.st75{clip-path:url(#SVGID_52_);}
	.st76{fill:#CE8E3A;}
	.st77{fill:#1BA09D;}
	.st78{fill:#FFBBBB;}
	.st79{clip-path:url(#SVGID_54_);}
	.st80{fill:#F47925;}
	.st81{clip-path:url(#SVGID_56_);}
	.st82{fill:#2D80AA;}
	.st83{clip-path:url(#SVGID_58_);}
	.st84{fill:#6BD6F2;}
	.st85{fill:#5656F2;}
	.st86{clip-path:url(#SVGID_60_);}
	.st87{fill:#5D56F1;}
	.st88{fill:#F2BE79;}
	.st89{clip-path:url(#SVGID_62_);}
	.st90{fill:#3DD8D8;}
	.st91{fill:#FD9D4C;}
	.st92{fill:#FDC960;}
	.st93{fill:#332195;}
	.st94{fill:#FD696E;}
	.st95{fill:#51DCF9;}
	.st96{fill:#FD9FF1;}
	.st97{fill:#2ED1A2;}
	.st98{fill:#F167DE;}
	.st99{fill:#FF0000;}
	.st100{fill:#3387DB;}
	.st101{fill:#22BEE1;}
	.st102{fill:#22D3D2;}
	.st103{fill:#C8D6E4;}
	.st104{fill:#21AC85;}
	.st105{clip-path:url(#SVGID_64_);}
	.st106{clip-path:url(#SVGID_66_);}
	.st107{clip-path:url(#SVGID_68_);}
	.st108{clip-path:url(#SVGID_70_);}
</style><g
     id="g36"
     transform="translate(-184.9,-249.7)"><g
       id="g10"><path
         class="st0"
         d="m 392.4,287.4 c -1.7,0 -3.3,0.8 -4.3,2.1 v 0 c -0.1,0.1 -0.2,0.2 -0.3,0.4 -0.1,-0.1 -0.2,-0.3 -0.3,-0.4 v 0 c -1,-1.3 -2.5,-2.1 -4.3,-2.1 -3,0 -5.4,2.4 -5.4,5.4 0,1.5 0.6,2.9 1.6,3.9 l 8.4,9 8.4,-9 c 1,-1 1.6,-2.4 1.6,-3.9 0,-3 -2.4,-5.4 -5.4,-5.4 z"
         id="path6"
         inkscape:connector-curvature="0"
         style="fill:#fb0e3b" /><path
         class="st4"
         d="m 414.5,310.8 c -0.1,0 -0.3,0.1 -0.5,0.1 -1.1,0 -2,-0.9 -2,-2 v -11.2 -25 h -9 v 4 c -4.1,-3.3 -9.4,-5.3 -15.1,-5.3 -1.8,0 -3.6,0.2 -5.4,0.6 -1.7,0.4 -3.4,1 -5,1.7 -1.6,0.7 -3,1.6 -4.4,2.7 -1.4,1 -2.6,2.2 -3.7,3.6 -1.1,1.3 -2.1,2.7 -2.9,4.3 -0.8,1.5 -1.5,3.2 -1.9,4.9 -0.5,1.7 -0.8,3.5 -0.9,5.3 -0.1,1.2 -0.1,2.3 -0.1,3.5 0,1.2 0,2.3 0,3.5 0,1.3 0,2.7 0,4 0,1 0,1.9 0,2.9 0,0.2 0,0.4 0,0.5 0,1.1 -0.9,2 -2,2 -1.1,0 -2,-0.9 -2,-2 v -59.2 h -9 v 27.1 c -4.2,-3.4 -9.4,-5.4 -15.2,-5.4 -13.3,0 -24.2,10.8 -24.2,24.2 0,13.3 10.8,24.2 24.2,24.2 6.2,0 11.9,-2.4 16.2,-6.3 1.7,3.8 5.6,6.4 10,6.4 4.4,0 8.2,-2.6 10,-6.4 4.3,3.9 10,6.3 16.2,6.3 6.2,0 11.8,-2.3 16.1,-6.2 1.8,3.7 5.5,6.3 9.9,6.3 0.2,0 0.3,0 0.5,0 v -9.1 z m -78.9,0 c -8.4,0 -15.2,-6.8 -15.2,-15.2 0,-8.4 6.8,-15.2 15.2,-15.2 8.4,0 15.2,6.8 15.2,15.2 0,8.3 -6.8,15.2 -15.2,15.2 z m 52.2,0 c -8.4,0 -15.2,-6.8 -15.2,-15.2 0,-8.4 6.8,-15.2 15.2,-15.2 8.4,0 15.2,6.8 15.2,15.2 0,8.4 -6.8,15.2 -15.2,15.2 z"
         id="path8"
         inkscape:connector-curvature="0"
         style="fill:#ffffff" /></g><g
       id="g20"><g
         id="g18"><path
           class="st3"
           d="m 204.4,275.4 c 7.2,0 13.1,4.1 15.5,9.5 l 0.3,-8.7 h 6.2 v 38.5 h -6.2 l -0.3,-8.7 c -2.4,5.4 -8.3,9.5 -15.5,9.5 -11,0 -19.5,-9 -19.5,-20.1 0,-11 8.4,-20 19.5,-20 z m 0.9,33.8 c 7.9,0 13.8,-6.3 13.8,-13.9 0,-7.4 -5.9,-13.8 -13.8,-13.8 -7.8,0 -13.9,6.3 -13.9,13.8 0,7.6 6.1,13.9 13.9,13.9 z"
           id="path12"
           inkscape:connector-curvature="0"
           style="fill:#660099" /><path
           class="st3"
           d="m 236.8,276.2 13.2,30.3 13.1,-30.3 h 7 l -24.2,55.9 H 239 l 7.6,-17.6 -16.7,-38.4 h 6.9 z"
           id="path14"
           inkscape:connector-curvature="0"
           style="fill:#660099" /><path
           class="st3"
           d="m 308.5,276.2 v 38.5 h -6.2 l -0.2,-6.8 c -3.6,4.2 -8.5,7.5 -15.2,7.5 -8.9,0 -14.3,-5.9 -14.3,-16.7 v -22.5 h 6.5 V 296 c 0,9.7 4.1,13.3 10,13.3 9.1,0 12.8,-8 12.8,-13.5 h 0.1 v -19.6 z"
           id="path16"
           inkscape:connector-curvature="0"
           style="fill:#660099" /></g></g><g
       id="g34"><path
         class="st0"
         d="m 418.4,271 h 6.2 l 0.4,8.7 c 2.4,-5.5 8.2,-9.5 15.4,-9.5 11,0 19.5,9 19.5,19.9 0,11.1 -8.5,20.1 -19.5,20.1 -7.2,0 -13.1,-4 -15.4,-9.5 V 327 h -6.5 v -56 z m 21,33.1 c 7.9,0 14,-6.3 14,-13.9 0,-7.4 -6.1,-13.8 -14,-13.8 -7.8,0 -13.8,6.3 -13.8,13.8 0,7.6 6,13.9 13.8,13.9 z"
         id="path22"
         inkscape:connector-curvature="0"
         style="fill:#fb0e3b" /><path
         class="st0"
         d="m 466.2,271 13.2,30.3 13.1,-30.3 h 7 l -24.2,56 h -6.9 L 476,309.4 459.2,271 Z"
         id="path24"
         inkscape:connector-curvature="0"
         style="fill:#fb0e3b" /><path
         class="st0"
         d="m 493.7,306.5 c 0,-2.1 1.7,-3.7 3.7,-3.7 2.1,0 3.7,1.6 3.7,3.7 0,2.1 -1.6,3.7 -3.7,3.7 -2.1,0 -3.7,-1.6 -3.7,-3.7 z"
         id="path26"
         inkscape:connector-curvature="0"
         style="fill:#fb0e3b" /><path
         class="st0"
         d="m 508,290.2 c 0,-10.9 9,-19.9 20.3,-19.9 11.2,0 20.1,9 20.1,19.9 0,11.1 -8.9,20.1 -20.1,20.1 -11.4,-0.1 -20.3,-9 -20.3,-20.1 z m 36.7,0 c 0,-9 -7.4,-16.4 -16.5,-16.4 -9.2,0 -16.6,7.4 -16.6,16.4 0,9.1 7.4,16.6 16.6,16.6 9.2,0 16.5,-7.5 16.5,-16.6 z"
         id="path28"
         inkscape:connector-curvature="0"
         style="fill:#fb0e3b" /><path
         class="st0"
         d="m 571.6,272 -0.9,3.1 c -0.7,-0.5 -2.1,-1.4 -4.3,-1.4 -6.8,0 -9.3,8.2 -9.3,14.4 v 21.3 h -3.6 V 271 h 3.4 l 0.2,5.9 c 2.1,-3.8 5.2,-6.6 9.4,-6.6 2.6,0 4.2,1 5.1,1.7 z"
         id="path30"
         inkscape:connector-curvature="0"
         style="fill:#fb0e3b" /><path
         class="st0"
         d="m 604.8,315.9 c 0,7.5 -7.1,11.8 -16.3,11.8 -9.2,0 -16.3,-4.3 -16.3,-11.8 0,-4.6 3.1,-7.9 6.2,-9.7 -2.3,-1 -3.7,-2.4 -3.7,-4.5 0,-2.4 2.1,-4.2 4.3,-4.9 -4.2,-2.6 -6.8,-7 -6.8,-12.1 0,-8.1 6.7,-14.4 15.5,-14.4 2.7,0 5.1,0.6 7.2,1.6 l 9.4,-0.8 v 3.3 h -5.7 c 2.8,2.6 4.6,6.2 4.6,10.3 0,8.1 -6.7,14.4 -15.5,14.4 -2.2,0 -4.2,-0.4 -6.1,-1.1 -2.1,0.8 -3.3,1.9 -3.3,3.2 0,2.1 3,3 8.3,3 10.6,0 18.2,4 18.2,11.7 z m -17.1,-20 c 6.8,0 11.9,-4.9 11.9,-11.2 0,-6.3 -5.1,-11.2 -11.9,-11.2 -6.8,0 -12,4.9 -12,11.2 0,6.2 5.2,11.2 12,11.2 z m 13.6,20.1 c 0,-6.2 -6.8,-8.6 -15.5,-8.6 -1.1,0 -2.3,-0.1 -3.3,-0.2 -2.9,1.3 -6.8,4.8 -6.8,8.7 0,5.5 5.5,8.6 12.8,8.6 7.4,0 12.8,-2.9 12.8,-8.5 z"
         id="path32"
         inkscape:connector-curvature="0"
         style="fill:#fb0e3b" /></g></g></svg>